<svg xmlns="http://www.w3.org/2000/svg" width="550" height="400" viewBox="0 0 550 400" fill="none">
  <rect width="550" height="400" rx="8" fill="#F9F9F9"/>
  <rect x="20" y="20" width="510" height="40" rx="4" fill="#EEEEEE"/>
  <rect x="30" y="30" width="20" height="20" rx="2" fill="#FF5722"/>
  <rect x="60" y="30" width="20" height="20" rx="2" fill="#FF5722" fill-opacity="0.6"/>
  <rect x="90" y="30" width="20" height="20" rx="2" fill="#FF5722" fill-opacity="0.3"/>
  <rect x="20" y="80" width="510" height="300" rx="4" fill="white"/>
  <rect x="40" y="100" width="300" height="20" rx="2" fill="#333333"/>
  <rect x="40" y="140" width="470" height="10" rx="2" fill="#666666"/>
  <rect x="40" y="160" width="430" height="10" rx="2" fill="#666666"/>
  <rect x="40" y="180" width="450" height="10" rx="2" fill="#666666"/>
  <rect x="40" y="220" width="200" height="15" rx="2" fill="#444444"/>
  <rect x="40" y="255" width="470" height="10" rx="2" fill="#666666"/>
  <rect x="40" y="275" width="440" height="10" rx="2" fill="#666666"/>
  <rect x="40" y="295" width="460" height="10" rx="2" fill="#666666"/>
  <rect x="40" y="315" width="420" height="10" rx="2" fill="#666666"/>
  <rect x="40" y="335" width="450" height="10" rx="2" fill="#666666"/>
  <circle cx="500" cy="120" r="15" fill="#4285F4" fill-opacity="0.3"/>
  <circle cx="470" cy="180" r="15" fill="#FF5722" fill-opacity="0.3"/>
</svg>

